<svg id="svg" version="1.1" xmlns="http://www.w3.org/2000/svg" xmlns:xlink="http://www.w3.org/1999/xlink" width="400" height="400" viewBox="0, 0, 400,400"><g id="svgg"><path id="path0" d="M180.180 97.760 C 178.629 98.055,176.823 98.575,176.166 98.914 C 175.510 99.254,174.273 99.663,173.419 99.823 C 172.062 100.077,167.139 102.088,165.094 103.223 C 164.706 103.438,163.213 103.887,161.776 104.220 C 157.963 105.104,155.137 106.310,154.000 107.537 C 152.704 108.936,147.629 113.047,145.209 114.658 C 144.170 115.350,142.236 117.240,140.911 118.858 C 139.586 120.476,137.449 122.790,136.162 124.000 C 133.934 126.095,128.805 134.063,126.956 138.301 C 124.277 144.440,123.518 146.615,122.989 149.665 C 122.657 151.576,122.142 153.830,121.844 154.675 C 121.546 155.520,121.177 157.018,121.025 158.005 C 120.872 158.992,120.330 161.330,119.822 163.200 C 118.937 166.450,118.313 170.421,117.589 177.400 C 117.121 181.910,116.939 197.251,117.313 200.600 C 117.967 206.459,118.864 212.746,119.595 216.600 C 120.012 218.800,120.559 222.490,120.811 224.800 C 121.912 234.910,124.289 243.580,127.327 248.569 C 130.442 253.684,131.553 259.026,130.892 265.706 C 130.274 271.957,130.958 274.143,134.306 276.600 C 141.066 281.562,135.830 302.235,125.429 311.649 C 123.393 313.492,120.707 315.867,119.460 316.926 C 118.213 317.986,116.235 320.146,115.064 321.726 C 113.893 323.307,112.635 324.846,112.269 325.147 C 111.440 325.829,108.587 331.026,108.250 332.468 C 108.113 333.056,106.875 335.037,105.500 336.870 C 104.125 338.703,102.730 340.588,102.400 341.058 C 100.402 343.904,96.841 348.209,94.317 350.827 C 89.986 355.322,88.084 357.503,85.895 360.485 C 84.810 361.962,83.581 363.279,83.162 363.412 C 82.351 363.670,82.057 365.600,82.829 365.600 C 83.382 365.600,84.400 366.618,84.400 367.171 C 84.400 367.407,84.830 367.600,85.357 367.600 C 86.043 367.600,86.384 367.882,86.564 368.600 C 86.771 369.425,87.057 369.600,88.196 369.600 C 89.266 369.600,89.776 369.870,90.463 370.800 C 90.951 371.460,91.677 372.000,92.075 372.000 C 92.474 372.000,92.800 372.264,92.800 372.586 C 92.800 373.353,94.049 374.000,95.530 374.000 C 96.459 374.000,96.767 374.215,96.964 375.000 C 97.171 375.822,97.458 376.000,98.579 376.000 C 99.556 376.000,100.164 376.283,100.729 377.000 C 101.191 377.588,101.925 378.000,102.511 378.000 C 103.166 378.000,103.577 378.270,103.714 378.791 C 103.853 379.324,104.511 379.740,105.733 380.067 C 106.821 380.358,107.618 380.824,107.724 381.232 C 107.841 381.680,108.501 382.010,109.651 382.195 C 110.650 382.356,111.667 382.815,112.023 383.266 C 112.392 383.735,113.342 384.149,114.362 384.286 C 115.399 384.425,116.453 384.889,117.022 385.458 C 117.759 386.195,118.397 386.400,119.954 386.400 C 121.714 386.400,121.959 386.504,122.072 387.300 C 122.184 388.084,122.471 388.216,124.300 388.321 C 126.054 388.422,126.400 388.567,126.400 389.202 C 126.400 390.065,128.433 390.794,130.853 390.798 C 131.929 390.799,132.357 390.992,132.500 391.539 C 132.715 392.362,134.298 392.800,137.050 392.800 C 138.320 392.800,138.800 392.961,138.800 393.386 C 138.800 394.351,140.185 394.800,143.164 394.800 C 145.728 394.800,146.041 394.890,146.637 395.800 C 147.252 396.739,147.503 396.800,150.751 396.800 C 153.974 396.800,154.261 396.868,154.961 397.800 C 155.681 398.759,155.889 398.800,160.056 398.800 C 163.651 398.800,164.400 398.903,164.400 399.400 C 164.400 399.929,168.556 400.000,199.400 400.000 C 230.244 400.000,234.400 399.929,234.400 399.400 C 234.400 398.900,235.201 398.800,239.209 398.800 C 243.950 398.800,244.024 398.786,244.473 397.800 C 244.912 396.837,245.067 396.800,248.674 396.800 C 252.301 396.800,252.432 396.768,252.800 395.800 C 253.151 394.877,253.378 394.800,255.740 394.800 C 259.282 394.800,260.868 394.427,261.100 393.539 C 261.251 392.962,261.701 392.791,263.147 392.760 C 264.166 392.738,265.449 392.595,265.998 392.443 C 267.275 392.087,267.603 390.800,266.417 390.800 C 265.954 390.800,265.508 390.575,265.426 390.300 C 265.344 390.025,264.733 388.000,264.068 385.800 C 263.403 383.600,262.733 381.170,262.580 380.400 C 262.427 379.630,261.612 377.557,260.769 375.793 C 259.926 374.030,258.879 371.060,258.442 369.193 C 256.885 362.544,251.940 350.560,249.649 347.885 C 249.044 347.178,248.116 345.970,247.586 345.200 C 243.324 339.000,233.523 331.075,224.200 326.291 C 220.853 324.573,216.854 322.842,215.670 322.598 C 211.506 321.739,211.073 319.421,213.994 313.611 C 215.992 309.637,216.478 309.480,221.200 311.272 C 232.719 315.646,241.577 311.559,247.293 299.234 C 248.586 296.447,249.421 295.312,252.150 292.634 C 253.963 290.855,255.880 288.680,256.411 287.800 C 257.530 285.943,257.450 286.051,259.773 283.249 C 262.230 280.286,262.723 279.077,263.410 274.325 C 264.496 266.807,265.960 262.062,268.131 259.018 C 268.897 257.945,269.003 257.254,269.029 253.200 C 269.045 250.640,269.267 248.100,269.530 247.472 C 269.789 246.852,270.192 245.052,270.426 243.472 C 270.659 241.892,271.187 239.160,271.598 237.400 C 272.009 235.640,272.492 233.212,272.672 232.004 C 272.959 230.086,273.152 229.741,274.200 229.283 C 276.445 228.301,276.600 228.120,277.038 225.960 C 277.279 224.772,278.195 222.630,279.073 221.200 C 282.342 215.875,283.830 209.084,282.553 205.321 C 281.827 203.184,281.762 199.581,282.374 195.400 C 282.947 191.485,282.885 186.495,282.205 181.800 C 281.454 176.614,281.459 174.834,282.234 172.981 C 282.598 172.110,282.826 170.599,282.770 169.432 C 282.574 165.322,282.620 165.203,285.500 162.461 C 286.985 161.047,288.953 159.273,289.873 158.519 C 290.998 157.597,292.135 156.007,293.346 153.663 C 294.335 151.747,295.698 149.484,296.373 148.634 C 297.366 147.384,297.600 146.716,297.600 145.125 C 297.600 144.044,297.893 142.593,298.252 141.900 C 299.777 138.950,298.260 132.712,295.902 132.240 C 293.695 131.799,292.400 130.523,292.400 128.792 C 292.400 126.206,291.774 125.391,288.854 124.178 C 287.394 123.572,285.750 122.668,285.200 122.170 C 284.650 121.672,283.137 120.797,281.838 120.227 C 280.539 119.656,278.269 118.201,276.793 116.995 C 275.318 115.788,273.771 114.798,273.355 114.795 C 272.940 114.793,271.610 114.508,270.400 114.164 C 269.190 113.819,266.850 113.296,265.200 113.001 C 263.550 112.706,260.130 111.715,257.600 110.799 C 255.070 109.883,252.370 108.933,251.600 108.689 C 250.830 108.445,249.448 107.740,248.528 107.123 C 247.608 106.505,246.618 106.000,246.328 106.000 C 246.038 106.000,244.659 105.460,243.265 104.800 C 241.110 103.781,240.421 103.636,238.665 103.836 C 237.071 104.017,235.871 103.836,233.400 103.041 C 231.640 102.474,229.554 102.008,228.764 102.005 C 227.974 102.002,226.444 101.727,225.364 101.393 C 219.289 99.517,209.299 98.329,202.200 98.638 C 198.350 98.806,196.273 98.709,194.200 98.263 C 190.006 97.360,183.507 97.127,180.180 97.760 " stroke="none" fill="#040404" fill-rule="evenodd"></path><path id="path1" d="M165.600 0.600 C 165.600 1.101,164.784 1.200,160.656 1.200 C 155.849 1.200,155.691 1.228,154.961 2.200 C 154.266 3.126,153.964 3.200,150.896 3.200 C 147.750 3.200,147.560 3.250,147.127 4.200 C 146.697 5.144,146.494 5.200,143.509 5.200 C 140.265 5.200,138.800 5.623,138.800 6.560 C 138.800 6.934,137.954 7.153,135.955 7.296 C 133.342 7.483,132.736 7.746,132.307 8.882 C 132.248 9.036,131.030 9.306,129.600 9.482 C 127.471 9.742,126.930 9.960,126.613 10.682 C 126.300 11.396,125.842 11.587,124.213 11.682 C 122.473 11.784,122.183 11.922,122.072 12.700 C 121.960 13.491,121.711 13.600,120.018 13.600 C 118.405 13.600,117.986 13.762,117.437 14.600 C 116.918 15.392,116.447 15.600,115.173 15.600 C 113.990 15.600,113.299 15.865,112.564 16.600 C 112.014 17.150,111.224 17.600,110.808 17.600 C 109.454 17.600,107.927 18.392,107.715 19.205 C 107.567 19.770,107.168 20.000,106.334 20.000 C 105.597 20.000,104.817 20.372,104.235 21.000 C 103.725 21.550,102.905 22.000,102.412 22.000 C 101.919 22.000,101.161 22.450,100.729 23.000 C 100.164 23.717,99.556 24.000,98.579 24.000 C 97.458 24.000,97.171 24.178,96.964 25.000 C 96.787 25.708,96.442 26.000,95.783 26.000 C 94.337 26.000,92.800 26.716,92.800 27.390 C 92.800 27.726,92.474 28.000,92.075 28.000 C 91.677 28.000,90.951 28.540,90.463 29.200 C 89.776 30.130,89.266 30.400,88.196 30.400 C 87.057 30.400,86.771 30.575,86.564 31.400 C 86.384 32.118,86.043 32.400,85.357 32.400 C 84.830 32.400,84.400 32.593,84.400 32.829 C 84.400 33.524,83.319 34.400,82.461 34.400 C 81.137 34.400,80.400 34.844,80.400 35.643 C 80.400 36.139,80.118 36.400,79.581 36.400 C 79.060 36.400,78.586 36.814,78.281 37.535 C 78.016 38.159,77.591 38.599,77.336 38.513 C 76.874 38.358,75.200 39.877,75.200 40.450 C 75.200 40.615,74.615 40.806,73.900 40.875 C 73.008 40.961,72.476 41.283,72.205 41.900 C 71.963 42.452,71.460 42.800,70.905 42.800 C 70.206 42.800,70.000 43.028,70.000 43.800 C 70.000 44.598,69.799 44.800,69.008 44.800 C 68.289 44.800,67.948 45.069,67.770 45.777 C 67.621 46.372,67.187 46.802,66.662 46.877 C 66.135 46.952,65.752 47.335,65.677 47.862 C 65.602 48.387,65.172 48.821,64.577 48.970 C 63.869 49.148,63.600 49.489,63.600 50.208 C 63.600 50.923,63.383 51.200,62.825 51.200 C 61.943 51.200,61.425 51.637,55.500 57.386 C 52.247 60.543,51.200 61.807,51.200 62.579 C 51.200 63.399,51.005 63.600,50.208 63.600 C 49.489 63.600,49.148 63.869,48.970 64.577 C 48.821 65.172,48.387 65.602,47.862 65.677 C 47.335 65.752,46.952 66.135,46.877 66.662 C 46.802 67.187,46.372 67.621,45.777 67.770 C 45.069 67.948,44.800 68.289,44.800 69.008 C 44.800 69.799,44.598 70.000,43.800 70.000 C 43.008 70.000,42.800 70.202,42.800 70.972 C 42.800 71.676,42.551 71.980,41.900 72.072 C 41.189 72.173,40.975 72.497,40.881 73.609 C 40.794 74.651,40.454 75.225,39.582 75.809 C 38.933 76.244,38.402 76.895,38.401 77.257 C 38.401 77.623,37.958 78.024,37.400 78.164 C 36.679 78.345,36.400 78.685,36.400 79.380 C 36.400 80.076,36.149 80.380,35.500 80.472 C 34.801 80.571,34.571 80.903,34.470 81.958 C 34.340 83.328,33.619 84.400,32.829 84.400 C 32.593 84.400,32.400 84.830,32.400 85.357 C 32.400 86.043,32.118 86.384,31.400 86.564 C 30.575 86.771,30.400 87.057,30.400 88.196 C 30.400 89.266,30.130 89.776,29.200 90.463 C 28.540 90.951,28.000 91.677,28.000 92.075 C 28.000 92.520,27.707 92.800,27.243 92.800 C 26.357 92.800,26.000 93.547,26.000 95.405 C 26.000 96.489,25.829 96.769,25.100 96.872 C 24.453 96.964,24.164 97.312,24.073 98.109 C 24.002 98.719,23.507 99.656,22.973 100.191 C 22.438 100.726,22.000 101.593,22.000 102.118 C 22.000 102.747,21.660 103.227,21.000 103.527 C 20.173 103.904,20.000 104.263,20.000 105.601 C 20.000 106.947,19.836 107.282,19.028 107.590 C 18.265 107.880,17.996 108.352,17.782 109.780 C 17.606 110.951,17.308 111.600,16.945 111.600 C 16.305 111.600,15.600 113.178,15.600 114.608 C 15.600 115.134,15.150 116.014,14.600 116.564 C 13.774 117.390,13.600 117.949,13.600 119.782 C 13.600 121.881,13.546 122.000,12.600 122.000 C 11.656 122.000,11.600 122.122,11.600 124.172 C 11.600 126.120,11.507 126.358,10.700 126.472 C 9.899 126.586,9.763 126.919,9.462 129.500 C 9.219 131.590,8.965 132.400,8.552 132.400 C 7.741 132.400,7.200 134.092,7.200 136.626 C 7.200 138.492,7.093 138.800,6.443 138.800 C 5.443 138.800,5.200 139.549,5.200 142.633 C 5.200 144.667,5.073 145.200,4.590 145.200 C 3.659 145.200,3.200 146.926,3.200 150.426 C 3.200 152.947,3.079 153.600,2.614 153.600 C 1.562 153.600,1.200 155.078,1.200 159.374 C 1.200 162.864,1.095 163.600,0.600 163.600 C 0.071 163.600,0.000 167.800,0.000 199.000 C 0.000 230.200,0.071 234.400,0.600 234.400 C 1.101 234.400,1.200 235.221,1.200 239.392 C 1.200 244.384,1.200 244.385,2.200 244.636 C 3.182 244.882,3.200 244.957,3.200 248.836 C 3.200 252.714,3.218 252.789,4.200 253.036 C 5.162 253.277,5.200 253.408,5.200 256.470 C 5.200 259.789,5.622 261.200,6.614 261.200 C 7.039 261.200,7.200 261.680,7.200 262.950 C 7.200 265.655,7.641 267.286,8.428 267.492 C 8.941 267.626,9.207 268.243,9.397 269.738 C 9.768 272.667,9.945 273.128,10.800 273.400 C 11.395 273.589,11.586 274.093,11.680 275.721 C 11.784 277.529,11.917 277.817,12.700 277.928 C 13.491 278.040,13.600 278.289,13.600 279.982 C 13.600 281.566,13.768 282.018,14.547 282.528 C 15.284 283.011,15.538 283.612,15.694 285.241 C 15.831 286.661,16.137 287.511,16.648 287.883 C 17.061 288.185,17.581 289.280,17.801 290.316 C 18.121 291.814,18.387 292.226,19.101 292.328 C 19.858 292.435,20.000 292.703,20.000 294.019 C 20.000 295.244,20.216 295.723,21.000 296.237 C 21.550 296.597,22.000 297.250,22.000 297.688 C 22.000 298.126,22.439 298.831,22.976 299.253 C 23.635 299.771,23.993 300.505,24.076 301.511 C 24.176 302.705,24.378 303.025,25.100 303.128 C 25.913 303.243,26.255 304.039,26.042 305.316 C 25.938 305.938,26.839 307.200,27.386 307.200 C 27.693 307.200,28.002 307.605,28.072 308.100 C 28.164 308.744,28.512 309.036,29.300 309.127 C 30.334 309.245,30.400 309.372,30.400 311.219 C 30.400 312.982,30.503 313.211,31.400 313.436 C 32.118 313.616,32.400 313.957,32.400 314.643 C 32.400 315.397,32.612 315.600,33.400 315.600 C 34.272 315.600,34.400 315.776,34.400 316.967 C 34.400 318.837,34.752 319.600,35.615 319.600 C 36.067 319.600,36.393 319.942,36.472 320.500 C 36.542 320.995,37.005 321.578,37.500 321.795 C 37.995 322.012,38.400 322.497,38.400 322.872 C 38.400 323.248,38.931 323.869,39.580 324.252 C 40.480 324.784,40.789 325.288,40.880 326.375 C 40.975 327.504,41.187 327.827,41.900 327.928 C 42.543 328.019,42.800 328.325,42.800 329.000 C 42.800 329.675,43.057 329.981,43.700 330.072 C 44.278 330.154,44.646 330.522,44.728 331.099 C 44.806 331.653,45.220 332.090,45.805 332.237 C 46.374 332.380,46.803 332.821,46.877 333.338 C 46.952 333.865,47.335 334.248,47.862 334.323 C 48.387 334.398,48.821 334.828,48.970 335.423 C 49.148 336.131,49.489 336.400,50.208 336.400 C 51.010 336.400,51.200 336.599,51.200 337.443 C 51.200 338.906,61.093 348.800,62.556 348.800 C 63.340 348.800,63.573 349.030,63.673 349.900 C 63.763 350.677,64.057 351.037,64.675 351.125 C 65.221 351.202,65.598 351.579,65.675 352.125 C 65.753 352.670,66.130 353.047,66.675 353.125 C 67.221 353.202,67.598 353.579,67.675 354.125 C 67.763 354.743,68.123 355.037,68.900 355.127 C 69.764 355.226,70.000 355.462,70.000 356.227 C 70.000 356.991,70.209 357.200,70.972 357.200 C 71.676 357.200,71.980 357.449,72.072 358.100 C 72.164 358.744,72.512 359.036,73.300 359.127 C 73.905 359.196,74.587 359.601,74.814 360.027 C 75.042 360.452,75.492 360.800,75.814 360.800 C 76.136 360.800,76.400 360.980,76.400 361.200 C 76.400 361.420,76.717 361.600,77.105 361.600 C 77.493 361.600,77.988 362.005,78.205 362.499 C 78.422 362.993,79.069 363.488,79.642 363.599 C 80.352 363.736,80.650 364.023,80.578 364.500 C 80.519 364.885,80.590 365.214,80.735 365.231 C 80.881 365.247,81.315 365.322,81.700 365.395 C 82.206 365.492,82.400 365.269,82.400 364.592 C 82.400 364.021,82.698 363.559,83.162 363.412 C 83.581 363.279,84.810 361.962,85.895 360.485 C 88.084 357.503,89.986 355.322,94.317 350.827 C 96.841 348.209,100.402 343.904,102.400 341.058 C 102.730 340.588,104.125 338.703,105.500 336.870 C 106.875 335.037,108.113 333.056,108.250 332.468 C 108.587 331.026,111.440 325.829,112.269 325.147 C 112.635 324.846,113.893 323.307,115.064 321.726 C 116.235 320.146,118.213 317.986,119.460 316.926 C 120.707 315.867,123.393 313.492,125.429 311.649 C 135.830 302.235,141.066 281.562,134.306 276.600 C 130.958 274.143,130.274 271.957,130.892 265.706 C 131.553 259.026,130.442 253.684,127.327 248.569 C 124.289 243.580,121.912 234.910,120.811 224.800 C 120.559 222.490,120.012 218.800,119.595 216.600 C 118.864 212.746,117.967 206.459,117.313 200.600 C 116.939 197.251,117.121 181.910,117.589 177.400 C 118.313 170.421,118.937 166.450,119.822 163.200 C 120.330 161.330,120.872 158.992,121.025 158.005 C 121.177 157.018,121.546 155.520,121.844 154.675 C 122.142 153.830,122.657 151.576,122.989 149.665 C 123.518 146.615,124.277 144.440,126.956 138.301 C 128.805 134.063,133.934 126.095,136.162 124.000 C 137.449 122.790,139.586 120.476,140.911 118.858 C 142.236 117.240,144.170 115.350,145.209 114.658 C 147.629 113.047,152.704 108.936,154.000 107.537 C 155.137 106.310,157.963 105.104,161.776 104.220 C 163.213 103.887,164.706 103.438,165.094 103.223 C 167.076 102.123,172.041 100.081,173.315 99.842 C 174.113 99.693,175.538 99.232,176.483 98.820 C 180.459 97.082,187.058 96.877,194.196 98.269 C 196.579 98.733,198.666 98.830,202.396 98.650 C 209.233 98.319,219.306 99.522,225.364 101.393 C 226.444 101.727,227.974 102.002,228.764 102.005 C 229.554 102.008,231.640 102.474,233.400 103.041 C 235.871 103.836,237.071 104.017,238.665 103.836 C 240.421 103.636,241.110 103.781,243.265 104.800 C 244.659 105.460,246.038 106.000,246.328 106.000 C 246.618 106.000,247.608 106.505,248.528 107.123 C 249.448 107.740,250.830 108.445,251.600 108.689 C 252.370 108.933,255.070 109.883,257.600 110.799 C 260.130 111.715,263.550 112.706,265.200 113.001 C 266.850 113.296,269.190 113.819,270.400 114.164 C 271.610 114.508,272.940 114.793,273.355 114.795 C 273.771 114.798,275.318 115.788,276.793 116.995 C 278.269 118.201,280.539 119.656,281.838 120.227 C 283.137 120.797,284.650 121.672,285.200 122.170 C 285.750 122.668,287.394 123.572,288.854 124.178 C 291.774 125.391,292.400 126.206,292.400 128.792 C 292.400 130.523,293.695 131.799,295.902 132.240 C 298.260 132.712,299.777 138.950,298.252 141.900 C 297.893 142.593,297.600 144.044,297.600 145.125 C 297.600 146.716,297.366 147.384,296.373 148.634 C 295.698 149.484,294.335 151.747,293.346 153.663 C 292.135 156.007,290.998 157.597,289.873 158.519 C 288.953 159.273,286.985 161.047,285.500 162.461 C 282.620 165.203,282.574 165.322,282.770 169.432 C 282.826 170.599,282.598 172.110,282.234 172.981 C 281.459 174.834,281.454 176.614,282.205 181.800 C 282.885 186.495,282.947 191.485,282.374 195.400 C 281.762 199.581,281.827 203.184,282.553 205.321 C 283.830 209.084,282.342 215.875,279.073 221.200 C 278.173 222.665,277.285 224.759,277.038 225.996 C 276.666 227.863,276.420 228.271,275.400 228.717 C 273.133 229.708,273.002 229.868,272.672 232.041 C 272.492 233.228,272.009 235.640,271.598 237.400 C 271.187 239.160,270.659 241.892,270.426 243.472 C 270.192 245.052,269.789 246.852,269.530 247.472 C 269.267 248.100,269.045 250.640,269.029 253.200 C 269.003 257.254,268.897 257.945,268.131 259.018 C 265.960 262.062,264.496 266.807,263.410 274.325 C 262.723 279.077,262.230 280.286,259.773 283.249 C 257.450 286.051,257.530 285.943,256.411 287.800 C 255.880 288.680,253.963 290.855,252.150 292.634 C 249.421 295.312,248.586 296.447,247.293 299.234 C 241.577 311.559,232.719 315.646,221.200 311.272 C 216.478 309.480,215.992 309.637,213.994 313.611 C 211.073 319.421,211.506 321.739,215.670 322.598 C 216.854 322.842,220.853 324.573,224.200 326.291 C 233.523 331.075,243.324 339.000,247.586 345.200 C 248.116 345.970,249.044 347.178,249.649 347.885 C 251.940 350.560,256.885 362.544,258.442 369.193 C 258.879 371.060,259.926 374.030,260.769 375.793 C 261.612 377.557,262.427 379.630,262.580 380.400 C 262.733 381.170,263.403 383.600,264.068 385.800 C 264.733 388.000,265.344 390.025,265.426 390.300 C 265.808 391.582,272.436 390.628,273.211 389.179 C 273.502 388.635,274.157 388.410,275.703 388.321 C 277.529 388.216,277.816 388.084,277.928 387.300 C 278.040 386.509,278.289 386.400,279.984 386.400 C 281.708 386.400,281.940 386.294,282.164 385.400 C 282.389 384.504,282.619 384.400,284.366 384.400 C 285.923 384.400,286.506 384.200,287.258 383.407 C 287.776 382.861,288.524 382.411,288.920 382.407 C 289.844 382.398,291.884 381.347,292.072 380.783 C 292.152 380.545,292.716 380.295,293.325 380.228 C 294.326 380.118,295.555 379.071,295.587 378.300 C 295.594 378.135,296.320 378.000,297.200 378.000 C 298.640 378.000,298.800 377.900,298.800 377.000 C 298.800 376.081,298.946 376.000,300.609 376.000 C 302.127 376.000,302.487 375.847,302.853 375.044 C 303.163 374.362,303.731 374.017,304.832 373.841 C 305.747 373.695,306.538 373.289,306.777 372.843 C 306.998 372.430,307.634 371.978,308.189 371.838 C 308.930 371.652,309.200 371.320,309.200 370.592 C 309.200 369.682,309.350 369.600,311.010 369.600 C 312.572 369.600,312.872 369.463,313.200 368.600 C 313.467 367.898,313.881 367.600,314.590 367.600 C 315.401 367.600,315.600 367.403,315.600 366.600 C 315.600 365.831,315.808 365.599,316.500 365.595 C 318.100 365.585,319.168 365.131,319.414 364.357 C 319.546 363.941,320.006 363.600,320.437 363.600 C 320.893 363.600,321.371 363.204,321.581 362.651 C 321.779 362.129,322.405 361.585,322.971 361.443 C 323.730 361.252,324.000 360.925,324.000 360.192 C 324.000 359.341,324.184 359.199,325.300 359.194 C 326.781 359.187,327.353 358.887,327.705 357.931 C 327.840 357.563,328.367 357.203,328.876 357.131 C 329.478 357.046,329.844 356.687,329.928 356.100 C 330.020 355.451,330.324 355.200,331.020 355.200 C 331.709 355.200,332.055 354.921,332.230 354.223 C 332.379 353.628,332.813 353.198,333.338 353.123 C 333.870 353.047,334.248 352.665,334.325 352.125 C 334.402 351.579,334.779 351.202,335.325 351.125 C 335.943 351.037,336.237 350.677,336.327 349.900 C 336.426 349.036,336.662 348.800,337.427 348.800 C 338.191 348.800,338.400 348.591,338.400 347.827 C 338.400 347.062,338.636 346.826,339.500 346.727 C 340.277 346.637,340.637 346.343,340.725 345.725 C 340.802 345.179,341.179 344.802,341.725 344.725 C 342.270 344.647,342.647 344.270,342.725 343.725 C 342.802 343.179,343.179 342.802,343.725 342.725 C 344.270 342.647,344.647 342.270,344.725 341.725 C 344.802 341.179,345.179 340.802,345.725 340.725 C 346.343 340.637,346.637 340.277,346.727 339.500 C 346.826 338.636,347.062 338.400,347.827 338.400 C 348.591 338.400,348.800 338.191,348.800 337.427 C 348.800 336.662,349.036 336.426,349.900 336.327 C 350.677 336.237,351.037 335.943,351.125 335.325 C 351.202 334.779,351.579 334.402,352.125 334.325 C 352.678 334.246,353.047 333.870,353.128 333.301 C 353.207 332.740,353.621 332.310,354.228 332.157 C 354.908 331.987,355.200 331.635,355.200 330.984 C 355.200 330.326,355.462 330.018,356.100 329.928 C 356.687 329.844,357.046 329.478,357.131 328.876 C 357.203 328.367,357.563 327.840,357.931 327.705 C 358.883 327.354,359.187 326.782,359.194 325.327 C 359.199 324.237,359.358 324.035,360.300 323.927 C 361.096 323.835,361.436 323.546,361.531 322.878 C 361.606 322.345,362.069 321.802,362.631 321.588 C 363.164 321.386,363.600 320.899,363.600 320.506 C 363.600 320.114,363.958 319.569,364.395 319.296 C 364.873 318.998,365.293 318.160,365.446 317.200 C 365.661 315.855,365.853 315.600,366.651 315.600 C 367.379 315.600,367.600 315.382,367.600 314.664 C 367.600 314.054,367.948 313.570,368.600 313.273 C 369.449 312.886,369.600 312.548,369.600 311.035 C 369.600 309.388,369.684 309.244,370.700 309.127 C 371.480 309.037,371.837 308.743,371.925 308.119 C 371.994 307.634,372.390 307.130,372.804 306.999 C 373.327 306.833,373.637 306.226,373.819 305.013 C 374.029 303.611,374.270 303.219,375.040 303.026 C 375.893 302.812,376.000 302.562,376.000 300.792 C 376.000 298.934,376.067 298.800,377.000 298.800 C 377.900 298.800,378.000 298.640,378.000 297.200 C 378.000 296.320,378.146 295.600,378.325 295.600 C 379.054 295.600,380.400 293.903,380.400 292.984 C 380.400 292.443,380.574 292.000,380.786 292.000 C 381.374 292.000,382.131 290.385,382.378 288.600 C 382.538 287.450,382.853 286.889,383.500 286.605 C 384.248 286.277,384.400 285.896,384.400 284.349 C 384.400 282.696,384.513 282.458,385.400 282.236 C 386.297 282.011,386.400 281.782,386.400 280.020 C 386.400 278.287,386.506 278.041,387.300 277.928 C 388.099 277.814,388.214 277.538,388.321 275.466 C 388.423 273.494,388.625 272.953,389.621 271.979 C 390.529 271.092,390.800 270.467,390.800 269.262 C 390.800 268.123,391.025 267.548,391.629 267.147 C 392.274 266.719,392.510 266.021,392.692 264.011 C 392.870 262.055,393.131 261.261,393.763 260.748 C 394.468 260.177,394.622 259.538,394.739 256.682 C 394.867 253.556,394.953 253.259,395.839 252.855 C 396.753 252.438,396.800 252.236,396.800 248.703 C 396.800 245.236,396.860 244.964,397.700 244.595 C 398.553 244.221,398.606 243.946,398.712 239.300 C 398.804 235.308,398.933 234.400,399.412 234.400 C 399.925 234.400,400.000 230.135,400.000 201.200 C 400.000 171.956,399.929 168.000,399.400 168.000 C 398.898 168.000,398.799 167.164,398.795 162.900 C 398.788 157.113,398.618 156.123,397.571 155.791 C 396.926 155.586,396.813 155.046,396.714 151.678 C 396.609 148.115,396.528 147.768,395.715 147.412 C 394.932 147.068,394.817 146.679,394.715 144.012 C 394.609 141.234,394.530 140.990,393.700 140.872 C 392.865 140.754,392.800 140.543,392.800 137.970 C 392.800 135.508,392.687 135.096,391.800 134.325 C 391.123 133.737,390.800 133.042,390.800 132.178 C 390.800 129.695,390.360 128.477,389.375 128.229 C 388.522 128.015,388.426 127.747,388.318 125.297 C 388.215 122.943,388.086 122.550,387.300 122.205 C 386.552 121.877,386.400 121.496,386.400 119.949 C 386.400 118.307,386.284 118.058,385.422 117.841 C 384.581 117.630,384.427 117.330,384.322 115.698 C 384.219 114.093,384.064 113.781,383.321 113.675 C 382.579 113.569,382.423 113.256,382.321 111.675 C 382.218 110.079,382.066 109.781,381.300 109.672 C 380.584 109.570,380.399 109.285,380.395 108.272 C 380.385 106.043,379.990 105.200,378.953 105.200 C 378.076 105.200,378.000 105.041,378.000 103.200 C 378.000 101.333,377.933 101.200,377.000 101.200 C 376.081 101.200,376.000 101.054,376.000 99.391 C 376.000 97.873,375.847 97.513,375.044 97.147 C 374.354 96.833,374.017 96.268,373.833 95.116 C 373.659 94.029,373.339 93.457,372.832 93.324 C 372.402 93.212,371.987 92.635,371.853 91.965 C 371.669 91.047,371.405 90.800,370.610 90.800 C 369.679 90.800,369.600 90.659,369.600 88.990 C 369.600 87.428,369.463 87.128,368.600 86.800 C 367.898 86.533,367.600 86.119,367.600 85.410 C 367.600 84.599,367.403 84.400,366.600 84.400 C 365.831 84.400,365.599 84.192,365.595 83.500 C 365.585 81.900,365.131 80.832,364.357 80.586 C 363.941 80.454,363.600 79.994,363.600 79.563 C 363.600 79.107,363.204 78.629,362.651 78.419 C 362.129 78.221,361.585 77.595,361.443 77.029 C 361.257 76.288,360.921 76.000,360.244 76.000 C 359.451 76.000,359.261 75.741,359.040 74.360 C 358.857 73.215,358.546 72.659,358.011 72.519 C 357.548 72.398,357.197 71.901,357.123 71.259 C 357.036 70.513,356.734 70.162,356.100 70.072 C 355.462 69.982,355.200 69.674,355.200 69.016 C 355.200 68.365,354.908 68.013,354.228 67.843 C 353.621 67.690,353.207 67.260,353.128 66.699 C 353.048 66.135,352.678 65.754,352.138 65.677 C 351.613 65.602,351.179 65.172,351.030 64.577 C 350.852 63.869,350.511 63.600,349.792 63.600 C 349.001 63.600,348.800 63.398,348.800 62.600 C 348.800 61.800,348.600 61.600,347.800 61.600 C 347.012 61.600,346.800 61.397,346.800 60.643 C 346.800 59.964,346.518 59.616,345.828 59.443 C 345.221 59.290,344.807 58.860,344.728 58.299 C 344.647 57.730,344.278 57.354,343.725 57.275 C 343.179 57.198,342.802 56.821,342.725 56.275 C 342.647 55.730,342.270 55.353,341.725 55.275 C 341.179 55.198,340.802 54.821,340.725 54.275 C 340.637 53.657,340.277 53.363,339.500 53.273 C 338.636 53.174,338.400 52.938,338.400 52.173 C 338.400 51.402,338.193 51.200,337.400 51.200 C 336.612 51.200,336.400 50.997,336.400 50.243 C 336.400 49.564,336.118 49.216,335.428 49.043 C 334.821 48.890,334.407 48.460,334.328 47.899 C 334.248 47.335,333.878 46.954,333.338 46.877 C 332.813 46.802,332.379 46.372,332.230 45.777 C 332.055 45.079,331.709 44.800,331.020 44.800 C 330.324 44.800,330.020 44.549,329.928 43.900 C 329.844 43.313,329.478 42.954,328.876 42.869 C 328.367 42.797,327.840 42.437,327.705 42.069 C 327.353 41.113,326.781 40.813,325.300 40.806 C 324.184 40.801,324.000 40.659,324.000 39.808 C 324.000 39.097,323.731 38.748,323.050 38.577 C 322.528 38.446,321.902 37.902,321.659 37.369 C 321.403 36.809,320.876 36.400,320.409 36.400 C 319.964 36.400,319.600 36.136,319.600 35.814 C 319.600 35.039,318.347 34.400,316.826 34.400 C 315.785 34.400,315.600 34.249,315.600 33.400 C 315.600 32.618,315.396 32.400,314.664 32.400 C 314.054 32.400,313.570 32.052,313.273 31.400 C 312.885 30.548,312.550 30.400,311.009 30.400 C 309.350 30.400,309.200 30.318,309.200 29.408 C 309.200 28.687,308.931 28.348,308.214 28.168 C 307.672 28.032,307.123 27.588,306.994 27.182 C 306.833 26.675,306.212 26.361,305.013 26.181 C 303.611 25.971,303.219 25.730,303.026 24.960 C 302.812 24.107,302.562 24.000,300.792 24.000 C 298.934 24.000,298.800 23.933,298.800 23.000 C 298.800 22.107,298.635 22.000,297.268 22.000 C 296.042 22.000,295.628 21.800,295.200 21.000 C 294.827 20.304,294.329 20.000,293.559 20.000 C 292.835 20.000,292.373 19.745,292.219 19.261 C 291.955 18.427,290.405 17.603,289.081 17.593 C 288.597 17.589,287.776 17.139,287.258 16.593 C 286.571 15.869,285.897 15.600,284.767 15.600 C 283.557 15.600,283.075 15.382,282.563 14.600 C 282.014 13.762,281.595 13.600,279.982 13.600 C 278.289 13.600,278.040 13.491,277.928 12.700 C 277.817 11.917,277.529 11.784,275.721 11.680 C 274.093 11.586,273.589 11.395,273.400 10.800 C 273.132 9.955,272.694 9.785,269.800 9.404 C 268.491 9.232,267.582 8.861,267.168 8.330 C 266.684 7.710,265.908 7.468,263.868 7.305 C 261.962 7.152,261.200 6.932,261.200 6.535 C 261.200 5.671,259.423 5.200,256.164 5.200 C 253.349 5.200,253.159 5.143,252.800 4.200 C 252.432 3.232,252.299 3.200,248.705 3.200 C 245.236 3.200,244.964 3.140,244.595 2.300 C 244.221 1.447,243.946 1.394,239.300 1.288 C 235.308 1.196,234.400 1.067,234.400 0.588 C 234.400 0.075,229.991 0.000,200.000 0.000 C 169.689 0.000,165.600 0.071,165.600 0.600 " stroke="none" fill="#fc0404" fill-rule="evenodd"></path></g></svg>